<svg width="512" height="512" viewBox="0 0 512 512" xmlns="http://www.w3.org/2000/svg">
  <!-- Background circle -->
  <circle cx="256" cy="256" r="240" fill="#FF6C37" stroke="#FF5722" stroke-width="8"/>
  
  <!-- API symbol -->
  <g fill="white">
    <!-- Letter A -->
    <path d="M140 180 L140 340 L170 340 L170 280 L210 280 L210 340 L240 340 L240 180 L210 180 L210 250 L170 250 L170 180 Z"/>
    
    <!-- Letter P -->
    <path d="M270 180 L270 340 L300 340 L300 270 L340 270 C360 270 370 260 370 240 L370 210 C370 190 360 180 340 180 Z M300 210 L340 210 L340 240 L300 240 Z"/>
    
    <!-- Letter I -->
    <path d="M400 180 L400 340 L430 340 L430 180 Z"/>
  </g>
  
  <!-- Network/connection lines -->
  <g stroke="white" stroke-width="4" fill="none" opacity="0.7">
    <circle cx="120" cy="120" r="20"/>
    <circle cx="392" cy="120" r="20"/>
    <circle cx="120" cy="392" r="20"/>
    <circle cx="392" cy="392" r="20"/>
    
    <line x1="140" y1="120" x2="200" y2="160"/>
    <line x1="372" y1="120" x2="312" y2="160"/>
    <line x1="140" y1="392" x2="200" y2="352"/>
    <line x1="372" y1="392" x2="312" y2="352"/>
  </g>
</svg>
